<svg width="15" height="15" viewBox="0 0 15 15" fill="none" xmlns="http://www.w3.org/2000/svg">
<path d="M10.4857 0.481129C10.6924 0.687961 10.8086 0.968448 10.8086 1.26091C10.8086 1.55337 10.6924 1.83385 10.4857 2.04069L5.02611 7.50024L10.4857 12.9598C10.6866 13.1678 10.7977 13.4464 10.7952 13.7356C10.7927 14.0248 10.6767 14.3014 10.4722 14.5059C10.2677 14.7104 9.99111 14.8264 9.70192 14.8289C9.41273 14.8314 9.13413 14.7203 8.92611 14.5194L2.68677 8.28002C2.48 8.07319 2.36384 7.7927 2.36384 7.50024C2.36384 7.20778 2.48 6.92729 2.68677 6.72046L8.92611 0.481129C9.13294 0.27436 9.41343 0.158203 9.70589 0.158203C9.99835 0.158203 10.2788 0.27436 10.4857 0.481129V0.481129Z" fill="white"/>
</svg>
