<svg width="18" height="18" viewBox="0 0 18 18" fill="none" xmlns="http://www.w3.org/2000/svg">
<path d="M12.4193 0.997581C12.9212 0.49592 13.6018 0.214163 14.3113 0.214294C15.0209 0.214426 15.7014 0.496434 16.2031 0.99828C16.7047 1.50013 16.9865 2.1807 16.9863 2.89029C16.9862 3.59988 16.7042 4.28035 16.2024 4.78201L15.178 5.80498L11.3922 2.02335L12.4179 0.997581H12.4193ZM10.4069 3.01138L2.08342 11.3321C1.83077 11.5849 1.64035 11.893 1.52721 12.2321L0.249896 16.0654C0.209091 16.1884 0.203298 16.3204 0.233163 16.4465C0.263029 16.5726 0.327377 16.6879 0.419014 16.7795C0.510652 16.8712 0.625969 16.9355 0.752077 16.9654C0.878184 16.9952 1.01011 16.9894 1.13312 16.9486L4.96646 15.6713C5.30605 15.5595 5.6135 15.3681 5.86645 15.1151L14.19 6.79441L10.4055 3.01138H10.4069Z" fill="white"/>
</svg>
