<svg width="24" height="24" viewBox="0 0 24 24" fill="none" xmlns="http://www.w3.org/2000/svg">
<rect width="24" height="24" rx="5" fill="#282828"/>
<path d="M6.99935 16.1663C6.76324 16.1663 6.56518 16.0863 6.40518 15.9263C6.24574 15.7669 6.16602 15.5691 6.16602 15.333V8.66634C6.16602 8.43023 6.24574 8.23217 6.40518 8.07217C6.56518 7.91273 6.76324 7.83301 6.99935 7.83301C7.23546 7.83301 7.43352 7.91273 7.59352 8.07217C7.75296 8.23217 7.83268 8.43023 7.83268 8.66634V11.1663H11.166V8.66634C11.166 8.43023 11.246 8.23217 11.406 8.07217C11.5655 7.91273 11.7632 7.83301 11.9993 7.83301C12.2355 7.83301 12.4335 7.91273 12.5935 8.07217C12.753 8.23217 12.8327 8.43023 12.8327 8.66634V15.333C12.8327 15.5691 12.753 15.7669 12.5935 15.9263C12.4335 16.0863 12.2355 16.1663 11.9993 16.1663C11.7632 16.1663 11.5655 16.0863 11.406 15.9263C11.246 15.7669 11.166 15.5691 11.166 15.333V12.833H7.83268V15.333C7.83268 15.5691 7.75296 15.7669 7.59352 15.9263C7.43352 16.0863 7.23546 16.1663 6.99935 16.1663ZM16.9993 16.1663C16.7632 16.1663 16.5655 16.0863 16.406 15.9263C16.246 15.7669 16.166 15.5691 16.166 15.333V9.49967H15.3327C15.0966 9.49967 14.8988 9.41967 14.7393 9.25967C14.5793 9.10023 14.4993 8.90245 14.4993 8.66634C14.4993 8.43023 14.5793 8.23217 14.7393 8.07217C14.8988 7.91273 15.0966 7.83301 15.3327 7.83301H16.9993C17.2355 7.83301 17.4332 7.91273 17.5927 8.07217C17.7527 8.23217 17.8327 8.43023 17.8327 8.66634V15.333C17.8327 15.5691 17.7527 15.7669 17.5927 15.9263C17.4332 16.0863 17.2355 16.1663 16.9993 16.1663Z" fill="white"/>
</svg>
