<svg width="24" height="24" viewBox="0 0 24 24" fill="none" xmlns="http://www.w3.org/2000/svg">
<rect width="24" height="24" rx="5" fill="#282828"/>
<path d="M5.33333 16.1663C5.09722 16.1663 4.89944 16.0863 4.74 15.9263C4.58 15.7669 4.5 15.5691 4.5 15.333V8.66634C4.5 8.43023 4.58 8.23217 4.74 8.07217C4.89944 7.91273 5.09722 7.83301 5.33333 7.83301C5.56944 7.83301 5.7675 7.91273 5.9275 8.07217C6.08694 8.23217 6.16667 8.43023 6.16667 8.66634V11.1663H9.5V8.66634C9.5 8.43023 9.58 8.23217 9.74 8.07217C9.89944 7.91273 10.0972 7.83301 10.3333 7.83301C10.5694 7.83301 10.7675 7.91273 10.9275 8.07217C11.0869 8.23217 11.1667 8.43023 11.1667 8.66634V15.333C11.1667 15.5691 11.0869 15.7669 10.9275 15.9263C10.7675 16.0863 10.5694 16.1663 10.3333 16.1663C10.0972 16.1663 9.89944 16.0863 9.74 15.9263C9.58 15.7669 9.5 15.5691 9.5 15.333V12.833H6.16667V15.333C6.16667 15.5691 6.08694 15.7669 5.9275 15.9263C5.7675 16.0863 5.56944 16.1663 5.33333 16.1663ZM17.8333 16.1663C17.5972 16.1663 17.3994 16.0863 17.24 15.9263C17.08 15.7669 17 15.5691 17 15.333V13.6663H13.6667C13.4306 13.6663 13.2328 13.5863 13.0733 13.4263C12.9133 13.2669 12.8333 13.0691 12.8333 12.833V8.66634C12.8333 8.43023 12.9133 8.23217 13.0733 8.07217C13.2328 7.91273 13.4306 7.83301 13.6667 7.83301C13.9028 7.83301 14.1008 7.91273 14.2608 8.07217C14.4203 8.23217 14.5 8.43023 14.5 8.66634V11.9997H17V8.66634C17 8.43023 17.08 8.23217 17.24 8.07217C17.3994 7.91273 17.5972 7.83301 17.8333 7.83301C18.0694 7.83301 18.2672 7.91273 18.4267 8.07217C18.5867 8.23217 18.6667 8.43023 18.6667 8.66634V11.9997H19.5C19.7361 11.9997 19.9339 12.0794 20.0933 12.2388C20.2533 12.3988 20.3333 12.5969 20.3333 12.833C20.3333 13.0691 20.2533 13.2669 20.0933 13.4263C19.9339 13.5863 19.7361 13.6663 19.5 13.6663H18.6667V15.333C18.6667 15.5691 18.5867 15.7669 18.4267 15.9263C18.2672 16.0863 18.0694 16.1663 17.8333 16.1663Z" fill="white"/>
</svg>
