<svg width="24" height="24" viewBox="0 0 24 24" fill="none" xmlns="http://www.w3.org/2000/svg">
<rect width="24" height="24" rx="5" fill="#282828"/>
<path d="M5.33333 16.1663C5.09722 16.1663 4.89944 16.0863 4.74 15.9263C4.58 15.7669 4.5 15.5691 4.5 15.333V8.66634C4.5 8.43023 4.58 8.23217 4.74 8.07217C4.89944 7.91273 5.09722 7.83301 5.33333 7.83301C5.56944 7.83301 5.7675 7.91273 5.9275 8.07217C6.08694 8.23217 6.16667 8.43023 6.16667 8.66634V11.1663H9.5V8.66634C9.5 8.43023 9.58 8.23217 9.74 8.07217C9.89944 7.91273 10.0972 7.83301 10.3333 7.83301C10.5694 7.83301 10.7675 7.91273 10.9275 8.07217C11.0869 8.23217 11.1667 8.43023 11.1667 8.66634V15.333C11.1667 15.5691 11.0869 15.7669 10.9275 15.9263C10.7675 16.0863 10.5694 16.1663 10.3333 16.1663C10.0972 16.1663 9.89944 16.0863 9.74 15.9263C9.58 15.7669 9.5 15.5691 9.5 15.333V12.833H6.16667V15.333C6.16667 15.5691 6.08694 15.7669 5.9275 15.9263C5.7675 16.0863 5.56944 16.1663 5.33333 16.1663ZM13.6667 16.1663C13.4306 16.1663 13.2328 16.0863 13.0733 15.9263C12.9133 15.7669 12.8333 15.5691 12.8333 15.333C12.8333 15.0969 12.9133 14.8988 13.0733 14.7388C13.2328 14.5794 13.4306 14.4997 13.6667 14.4997H17.8333V12.833H13.6667C13.4306 12.833 13.2328 12.753 13.0733 12.593C12.9133 12.4336 12.8333 12.2358 12.8333 11.9997V8.66634C12.8333 8.43023 12.9133 8.23217 13.0733 8.07217C13.2328 7.91273 13.4306 7.83301 13.6667 7.83301H18.6667C18.9028 7.83301 19.1006 7.91273 19.26 8.07217C19.42 8.23217 19.5 8.43023 19.5 8.66634C19.5 8.90245 19.42 9.10023 19.26 9.25967C19.1006 9.41967 18.9028 9.49967 18.6667 9.49967H14.5V11.1663H17.8333C18.2917 11.1663 18.6842 11.3294 19.0108 11.6555C19.3369 11.9822 19.5 12.3747 19.5 12.833V14.4997C19.5 14.958 19.3369 15.3505 19.0108 15.6772C18.6842 16.0033 18.2917 16.1663 17.8333 16.1663H13.6667Z" fill="white"/>
</svg>
