<svg width="24" height="24" viewBox="0 0 24 24" fill="none" xmlns="http://www.w3.org/2000/svg">
<rect width="24" height="24" rx="5" fill="#282828"/>
<path d="M5.33333 16.1663C5.09722 16.1663 4.89944 16.0863 4.74 15.9263C4.58 15.7669 4.5 15.5691 4.5 15.333V8.66634C4.5 8.43023 4.58 8.23217 4.74 8.07217C4.89944 7.91273 5.09722 7.83301 5.33333 7.83301C5.56944 7.83301 5.7675 7.91273 5.9275 8.07217C6.08694 8.23217 6.16667 8.43023 6.16667 8.66634V11.1663H9.5V8.66634C9.5 8.43023 9.58 8.23217 9.74 8.07217C9.89944 7.91273 10.0972 7.83301 10.3333 7.83301C10.5694 7.83301 10.7675 7.91273 10.9275 8.07217C11.0869 8.23217 11.1667 8.43023 11.1667 8.66634V15.333C11.1667 15.5691 11.0869 15.7669 10.9275 15.9263C10.7675 16.0863 10.5694 16.1663 10.3333 16.1663C10.0972 16.1663 9.89944 16.0863 9.74 15.9263C9.58 15.7669 9.5 15.5691 9.5 15.333V12.833H6.16667V15.333C6.16667 15.5691 6.08694 15.7669 5.9275 15.9263C5.7675 16.0863 5.56944 16.1663 5.33333 16.1663ZM14.5 16.1663C14.0417 16.1663 13.6494 16.0033 13.3233 15.6772C12.9967 15.3505 12.8333 14.958 12.8333 14.4997V9.49967C12.8333 9.04134 12.9967 8.64884 13.3233 8.32217C13.6494 7.99606 14.0417 7.83301 14.5 7.83301H18.6667C18.9028 7.83301 19.1006 7.91273 19.26 8.07217C19.42 8.23217 19.5 8.43023 19.5 8.66634C19.5 8.90245 19.42 9.10023 19.26 9.25967C19.1006 9.41967 18.9028 9.49967 18.6667 9.49967H14.5V11.1663H17.8333C18.2917 11.1663 18.6842 11.3294 19.0108 11.6555C19.3369 11.9822 19.5 12.3747 19.5 12.833V14.4997C19.5 14.958 19.3369 15.3505 19.0108 15.6772C18.6842 16.0033 18.2917 16.1663 17.8333 16.1663H14.5ZM14.5 12.833V14.4997H17.8333V12.833H14.5Z" fill="white"/>
</svg>
