<svg width="22" height="22" viewBox="0 0 22 22" fill="none" xmlns="http://www.w3.org/2000/svg">
<path d="M8.48613 11.0001C9.75223 11.0001 10.6861 10.0662 10.6861 8.8001C10.6861 7.534 9.75223 6.6001 8.48613 6.6001C7.22003 6.6001 6.28613 7.534 6.28613 8.8001C6.28613 10.0662 7.21893 11.0001 8.48613 11.0001Z" fill="#969696"/>
<path d="M19.8 2.2002H2.2C0.9867 2.2002 0 3.1253 0 4.26269V17.7377C0 18.8751 0.9867 19.8002 2.2 19.8002H19.8C21.0133 19.8002 22 18.8751 22 17.7377V4.26269C22 3.1253 21.0133 2.2002 19.8 2.2002ZM19.8 17.6002L2.2 17.5881V4.40019L19.8 4.4123V17.6002Z" fill="#969696"/>
<path d="M13.2004 7.7002H17.6004V9.9002H13.2004V7.7002ZM14.3004 12.1002H17.6004V14.3002H14.3004V12.1002ZM12.5734 14.8898C12.5734 13.3784 10.7298 11.8252 8.48689 11.8252C6.24399 11.8252 4.40039 13.3784 4.40039 14.8898V15.4002H12.5734V14.8898Z" fill="#969696"/>
</svg>
