<svg width="30" height="30" viewBox="0 0 30 30" fill="none" xmlns="http://www.w3.org/2000/svg">
<g clip-path="url(#clip0_5709_11938)">
<path d="M15 17.9609C15.8319 17.9609 16.6297 17.6305 17.218 17.0422C17.8062 16.454 18.1367 15.6561 18.1367 14.8242C18.1367 13.9923 17.8062 13.1945 17.218 12.6062C16.6297 12.018 15.8319 11.6875 15 11.6875C14.1681 11.6875 13.3703 12.018 12.782 12.6062C12.1938 13.1945 11.8633 13.9923 11.8633 14.8242C11.8633 15.6561 12.1938 16.454 12.782 17.0422C13.3703 17.6305 14.1681 17.9609 15 17.9609ZM3.57422 17.9609C4.40613 17.9609 5.20396 17.6305 5.79221 17.0422C6.38046 16.454 6.71094 15.6561 6.71094 14.8242C6.71094 13.9923 6.38046 13.1945 5.79221 12.6062C5.20396 12.018 4.40613 11.6875 3.57422 11.6875C2.74231 11.6875 1.94447 12.018 1.35622 12.6062C0.767975 13.1945 0.4375 13.9923 0.4375 14.8242C0.4375 15.6561 0.767975 16.454 1.35622 17.0422C1.94447 17.6305 2.74231 17.9609 3.57422 17.9609ZM26.4258 17.9609C27.2577 17.9609 28.0555 17.6305 28.6438 17.0422C29.232 16.454 29.5625 15.6561 29.5625 14.8242C29.5625 13.9923 29.232 13.1945 28.6438 12.6062C28.0555 12.018 27.2577 11.6875 26.4258 11.6875C25.5939 11.6875 24.796 12.018 24.2078 12.6062C23.6195 13.1945 23.2891 13.9923 23.2891 14.8242C23.2891 15.6561 23.6195 16.454 24.2078 17.0422C24.796 17.6305 25.5939 17.9609 26.4258 17.9609Z" fill="white" stroke="white"/>
</g>
<defs>
<clipPath id="clip0_5709_11938">
<rect width="30" height="30" fill="white"/>
</clipPath>
</defs>
</svg>
