<svg width="24" height="24" viewBox="0 0 24 24" fill="none" xmlns="http://www.w3.org/2000/svg">
<rect width="24" height="24" rx="5" fill="#282828"/>
<path d="M9.375 18C9.0625 18 8.797 17.8905 8.5785 17.6715C8.3595 17.453 8.25 17.1875 8.25 16.875V8.25H5.625C5.3125 8.25 5.047 8.1405 4.8285 7.9215C4.6095 7.703 4.5 7.4375 4.5 7.125C4.5 6.8125 4.6095 6.547 4.8285 6.3285C5.047 6.1095 5.3125 6 5.625 6H13.125C13.4375 6 13.703 6.1095 13.9215 6.3285C14.1405 6.547 14.25 6.8125 14.25 7.125C14.25 7.4375 14.1405 7.703 13.9215 7.9215C13.703 8.1405 13.4375 8.25 13.125 8.25H10.5V16.875C10.5 17.1875 10.3905 17.453 10.1715 17.6715C9.953 17.8905 9.6875 18 9.375 18ZM16.125 18C15.8125 18 15.547 17.8905 15.3285 17.6715C15.1095 17.453 15 17.1875 15 16.875V12H13.875C13.5625 12 13.297 11.8905 13.0785 11.6715C12.8595 11.453 12.75 11.1875 12.75 10.875C12.75 10.5625 12.8595 10.297 13.0785 10.0785C13.297 9.8595 13.5625 9.75 13.875 9.75H18.375C18.6875 9.75 18.953 9.8595 19.1715 10.0785C19.3905 10.297 19.5 10.5625 19.5 10.875C19.5 11.1875 19.3905 11.453 19.1715 11.6715C18.953 11.8905 18.6875 12 18.375 12H17.25V16.875C17.25 17.1875 17.1405 17.453 16.9215 17.6715C16.703 17.8905 16.4375 18 16.125 18Z" fill="white"/>
</svg>
